<?xml version="1.0" standalone="no"?>
<!DOCTYPE svg PUBLIC "-//W3C//DTD SVG 20010904//EN"
 "http://www.w3.org/TR/2001/REC-SVG-20010904/DTD/svg10.dtd">
<svg version="1.0" xmlns="http://www.w3.org/2000/svg"
 width="599.000000pt" height="599.000000pt" viewBox="0 0 599.000000 599.000000"
 preserveAspectRatio="xMidYMid meet">
<metadata>
Created by potrace 1.11, written by Peter Selinger 2001-2013
</metadata>
<g transform="translate(0.000000,599.000000) scale(0.100000,-0.100000)"
fill="#000000" stroke="none">
<path d="M2919 5087 c-51 -39 -54 -121 -8 -216 56 -114 174 -209 317 -256 61
-19 64 -32 28 -103 -24 -47 -102 -128 -146 -152 -12 -7 -57 -17 -99 -22 -460
-56 -791 -375 -794 -763 -2 -251 127 -426 342 -465 64 -11 221 -10 221 1 0 4
7 10 16 13 8 3 13 2 10 -3 -4 -5 3 -7 14 -4 11 3 17 9 14 14 -3 5 2 6 10 3 9
-3 16 -2 16 2 0 5 15 21 34 36 l34 27 39 -31 c96 -78 256 -126 384 -115 98 8
229 71 229 109 0 30 -19 30 -63 -2 -57 -40 -124 -60 -206 -60 -289 0 -531 249
-535 550 -1 79 2 91 35 160 78 160 213 265 405 316 91 24 298 24 403 1 96 -21
199 -73 226 -113 27 -39 71 -178 85 -264 14 -93 12 -219 -5 -308 -19 -96 -80
-221 -140 -289 -43 -50 -50 -73 -21 -73 37 0 144 158 180 268 112 337 -26 794
-298 987 -98 69 -163 89 -287 90 l-105 0 28 44 c15 25 31 60 34 79 4 18 12 36
19 38 31 12 283 -85 357 -138 16 -11 32 -16 38 -13 48 30 -102 115 -305 175
l-90 26 -6 55 c-13 119 -64 222 -152 307 -36 34 -85 71 -109 82 -48 22 -125
26 -149 7z m126 -41 c45 -19 126 -96 165 -155 35 -55 67 -142 72 -197 3 -38 2
-39 -27 -37 -89 7 -247 129 -300 233 -33 63 -40 144 -15 160 22 14 66 12 105
-4z m-492 -1048 c59 -73 98 -163 138 -318 11 -41 27 -94 36 -117 8 -23 12 -46
9 -51 -3 -6 -3 -12 1 -14 7 -3 41 -87 46 -113 1 -5 5 -14 10 -20 96 -129 97
-129 79 -146 -28 -26 -113 -56 -178 -64 -77 -8 -175 9 -237 43 -66 36 -141
120 -168 190 -33 82 -34 266 -2 367 28 87 83 182 146 252 56 61 64 60 120 -9z"/>
<path d="M2726 3432 c-3 -5 1 -9 9 -9 8 0 12 4 9 9 -3 4 -7 8 -9 8 -2 0 -6 -4
-9 -8z"/>
<path d="M2865 3120 c-3 -6 1 -7 9 -4 18 7 21 14 7 14 -6 0 -13 -4 -16 -10z"/>
<path d="M1913 2873 c-7 -2 -13 -13 -13 -24 0 -14 7 -19 25 -19 34 0 94 -26
122 -52 l22 -21 -45 -55 c-90 -110 -134 -240 -134 -392 0 -159 52 -250 142
-250 122 0 187 144 175 388 -6 116 -25 210 -53 265 -15 27 -14 28 23 44 57 24
159 23 208 -3 72 -38 102 -123 71 -199 -18 -42 -87 -93 -138 -102 -33 -5 -39
-9 -36 -27 6 -44 121 -11 180 51 113 119 51 307 -113 342 -57 12 -162 0 -209
-24 -25 -13 -29 -12 -46 6 -42 46 -145 87 -181 72z m234 -327 c19 -104 11
-263 -17 -343 -21 -60 -58 -103 -89 -103 -34 0 -70 39 -86 92 -42 141 7 363
107 482 l32 40 19 -44 c11 -24 26 -80 34 -124z"/>
<path d="M3805 2816 c-16 -7 -40 -24 -52 -38 -26 -28 -103 -172 -103 -193 0
-9 -15 -15 -47 -17 -40 -3 -48 -6 -48 -23 0 -16 8 -21 38 -23 32 -3 36 -6 32
-25 -26 -123 -42 -308 -31 -381 6 -41 10 -47 29 -44 20 3 23 11 28 79 9 106
62 216 129 262 31 22 36 21 60 -3 17 -17 20 -33 20 -100 0 -44 -5 -111 -12
-150 -11 -61 -10 -72 2 -80 23 -14 39 9 51 75 19 98 16 225 -7 271 -45 91
-157 57 -220 -68 -13 -26 -26 -48 -28 -48 -4 0 12 102 27 168 12 53 13 54 65
72 65 23 144 80 171 124 21 33 28 100 13 122 -10 16 -48 34 -69 34 -10 -1 -31
-7 -48 -14z m71 -51 c11 -27 -7 -68 -43 -102 -38 -37 -111 -78 -121 -69 -11
12 53 128 86 157 36 32 69 38 78 14z"/>
<path d="M2615 2465 c-89 -32 -151 -144 -143 -261 4 -58 7 -68 40 -101 31 -31
45 -37 90 -40 65 -5 141 28 146 65 4 28 -20 29 -55 2 -37 -29 -104 -27 -140 4
-26 22 -28 30 -28 93 1 104 49 179 127 198 35 9 68 -10 68 -39 0 -37 -30 -66
-90 -86 -59 -20 -71 -34 -43 -48 32 -16 100 6 143 47 34 32 40 44 40 79 0 78
-70 118 -155 87z"/>
<path d="M2955 2461 c-128 -77 -187 -311 -97 -381 49 -39 135 -12 168 51 14
28 14 33 1 46 -13 13 -16 13 -28 -2 -56 -68 -83 -80 -113 -49 -23 22 -20 111
4 177 21 55 78 120 116 131 12 4 33 2 47 -3 39 -15 47 -61 31 -172 -20 -131
-20 -167 -2 -186 23 -22 38 -8 38 35 0 20 7 86 16 146 18 125 11 171 -33 205
-33 27 -106 28 -148 2z"/>
<path d="M3370 2469 c-113 -45 -180 -238 -123 -351 26 -53 108 -73 176 -44 44
19 89 68 81 89 -9 25 -21 21 -60 -18 -48 -48 -104 -52 -141 -9 -48 54 -22 196
48 259 45 40 79 45 116 15 30 -23 54 -12 46 21 -12 43 -82 62 -143 38z"/>
<path d="M4022 2413 c-31 -166 -27 -264 15 -313 20 -24 33 -30 65 -30 35 0 47
6 82 43 23 23 49 53 58 67 19 28 19 35 -7 -101 l-17 -85 -76 0 c-163 1 -292
-88 -292 -199 1 -67 37 -95 120 -95 92 0 189 66 248 170 27 47 30 49 44 33 9
-10 18 -27 20 -38 2 -12 13 -21 26 -23 36 -5 30 50 -11 95 -33 35 -33 36 -21
84 17 66 33 214 36 339 3 102 2 105 -19 108 -19 3 -23 -1 -23 -26 0 -16 -9
-64 -20 -107 -31 -122 -94 -215 -144 -215 -49 0 -63 75 -42 220 20 132 20 130
-8 130 -21 0 -25 -7 -34 -57z m168 -481 c0 -31 -78 -130 -123 -156 -81 -46
-150 -42 -163 10 -20 78 101 162 234 163 44 1 52 -2 52 -17z"/>
<path d="M1931 1893 c1 -27 3 -40 6 -30 3 12 12 17 26 15 33 -5 27 -32 -8 -39
l-30 -7 32 -1 c38 -1 47 10 38 50 -5 23 -10 28 -18 20 -18 -18 -37 -13 -37 10
0 17 5 20 25 17 14 -3 25 -1 25 3 0 5 -13 9 -30 9 -29 0 -30 -1 -29 -47z"/>
<path d="M2151 1924 c0 -11 3 -14 6 -6 3 7 2 16 -1 19 -3 4 -6 -2 -5 -13z"/>
<path d="M2252 1923 c-2 -16 -7 -21 -19 -17 -16 5 -16 4 0 -6 14 -9 17 -20 13
-43 -6 -30 -5 -30 4 -7 6 13 9 40 7 60 -2 19 -4 25 -5 13z"/>
<path d="M2567 1933 c-4 -3 -7 -28 -7 -55 0 -46 1 -48 29 -48 36 0 44 11 36
50 -6 25 -9 28 -25 20 -26 -14 -30 -13 -30 11 0 17 5 20 25 17 13 -3 22 -1 19
3 -6 11 -38 12 -47 2z m51 -70 c-2 -10 -13 -19 -26 -21 -17 -3 -22 2 -22 17 0
16 6 21 26 21 19 0 25 -5 22 -17z"/>
<path d="M3260 1908 c0 -30 3 -34 28 -33 17 0 27 -5 27 -15 0 -19 -45 -26 -56
-8 -7 10 -9 9 -9 -4 0 -13 8 -18 29 -18 33 0 57 23 44 42 -4 7 -8 24 -8 38 0
20 -6 26 -27 28 -26 3 -28 0 -28 -30z m48 5 c-5 -26 -38 -29 -38 -4 0 15 6 21
21 21 14 0 19 -5 17 -17z"/>
<path d="M3183 1890 c0 -25 2 -35 4 -22 2 12 2 32 0 45 -2 12 -4 2 -4 -23z"/>
<path d="M3558 1917 c-2 -7 -1 -28 3 -47 l6 -35 2 32 c0 17 5 33 10 35 5 2 3
8 -4 15 -10 9 -14 9 -17 0z"/>
<path d="M2964 1912 c-5 -4 -7 -23 -3 -42 l6 -35 2 32 c0 17 6 33 13 35 7 3 8
7 2 11 -5 3 -14 3 -20 -1z"/>
<path d="M3042 1872 c1 -40 2 -42 5 -12 3 19 9 38 15 41 5 4 3 9 -6 12 -13 5
-16 -2 -14 -41z"/>
<path d="M2082 1885 c0 -16 2 -22 5 -12 2 9 2 23 0 30 -3 6 -5 -1 -5 -18z"/>
<path d="M2113 1875 c0 -22 2 -30 4 -17 2 12 2 30 0 40 -3 9 -5 -1 -4 -23z"/>
<path d="M2185 1900 c-3 -6 1 -7 9 -4 18 7 21 14 7 14 -6 0 -13 -4 -16 -10z"/>
<path d="M2283 1870 c0 -25 2 -35 4 -22 2 12 2 32 0 45 -2 12 -4 2 -4 -23z"/>
<path d="M2314 1875 c-3 -20 -4 -39 0 -42 3 -4 6 5 6 18 0 35 15 53 39 46 12
-3 21 -1 21 4 0 5 -13 9 -30 9 -25 0 -30 -4 -36 -35z"/>
<path d="M2415 1899 c-11 -16 -1 -19 13 -3 7 8 8 14 3 14 -5 0 -13 -5 -16 -11z"/>
<path d="M2465 1896 c12 -8 16 -21 12 -35 -3 -11 -1 -21 4 -21 5 0 9 15 9 33
0 26 -4 33 -21 34 -20 2 -20 1 -4 -11z"/>
<path d="M2651 1888 c-5 -13 -5 -31 1 -40 9 -18 53 -25 62 -10 3 5 -8 7 -23 4
-19 -3 -30 1 -34 12 -5 13 1 16 33 16 22 0 40 4 40 8 0 11 -22 32 -34 32 -5 0
-1 -7 10 -15 18 -14 17 -14 -13 -15 -33 0 -45 14 -20 23 9 4 9 6 -1 6 -7 1
-16 -9 -21 -21z"/>
<path d="M2762 1901 c-8 -5 -12 -21 -10 -37 3 -26 7 -29 41 -30 35 -1 37 0 37
31 0 20 -6 35 -15 39 -12 4 -13 2 -3 -13 16 -26 3 -51 -27 -51 -20 0 -25 5
-25 25 0 13 8 29 18 34 9 6 13 10 7 11 -5 0 -16 -4 -23 -9z"/>
<path d="M2922 1890 c0 -14 2 -19 5 -12 2 6 2 18 0 25 -3 6 -5 1 -5 -13z"/>
<path d="M3152 1890 c0 -14 2 -19 5 -12 2 6 2 18 0 25 -3 6 -5 1 -5 -13z"/>
<path d="M3356 1901 c-3 -4 6 -6 20 -3 31 6 47 -14 33 -40 -14 -25 -48 -23
-59 5 -5 13 -9 16 -9 7 -1 -21 19 -40 40 -40 27 0 50 39 38 62 -10 18 -53 25
-63 9z"/>
<path d="M3450 1890 c-15 -28 4 -60 36 -60 31 0 54 41 34 65 -7 8 -17 15 -23
15 -6 0 -3 -6 7 -13 26 -19 13 -57 -19 -57 -12 0 -26 7 -29 16 -8 21 -8 20 10
38 8 9 11 16 5 16 -6 0 -15 -9 -21 -20z"/>
<path d="M3600 1905 c0 -5 5 -17 10 -25 5 -8 10 -10 10 -5 0 6 -5 17 -10 25
-5 8 -10 11 -10 5z"/>
<path d="M3660 1902 c0 -7 -8 -20 -19 -31 -10 -10 -21 -31 -25 -47 -5 -21 2
-14 24 24 17 30 29 56 26 60 -3 3 -6 0 -6 -6z"/>
<path d="M2143 1865 c0 -22 2 -30 4 -17 2 12 2 30 0 40 -3 9 -5 -1 -4 -23z"/>
<path d="M3093 1868 c2 -28 6 -33 26 -33 13 0 25 6 27 13 1 7 0 8 -3 2 -11
-23 -42 -10 -47 20 -6 30 -6 30 -3 -2z"/>
<path d="M2862 1870 c0 -14 2 -19 5 -12 2 6 2 18 0 25 -3 6 -5 1 -5 -13z"/>
<path d="M3002 1860 c0 -19 2 -27 5 -17 2 9 2 25 0 35 -3 9 -5 1 -5 -18z"/>
<path d="M3703 1874 c22 -27 21 -34 -5 -35 -19 -1 -20 -2 -4 -6 33 -9 43 15
16 40 -21 19 -22 19 -7 1z"/>
<path d="M2021 1864 c0 -11 3 -14 6 -6 3 7 2 16 -1 19 -3 4 -6 -2 -5 -13z"/>
<path d="M2171 1869 c-1 -22 24 -42 46 -36 14 4 13 5 -5 6 -13 1 -26 10 -32
24 -6 15 -9 17 -9 6z"/>
<path d="M2372 1850 c0 -14 2 -19 5 -12 2 6 2 18 0 25 -3 6 -5 1 -5 -13z"/>
<path d="M2910 1852 c0 -7 -10 -13 -22 -13 -19 -1 -20 -2 -4 -6 20 -5 44 12
33 24 -4 3 -7 1 -7 -5z"/>
<path d="M2050 1840 c-23 -7 -23 -8 -3 -9 12 -1 25 4 28 9 3 6 5 10 3 9 -2 -1
-14 -5 -28 -9z"/>
<path d="M2438 1833 c7 -3 16 -2 19 1 4 3 -2 6 -13 5 -11 0 -14 -3 -6 -6z"/>
<path d="M2417 1808 c2 -5 15 -8 28 -8 13 0 26 3 28 8 3 4 -10 7 -28 7 -18 0
-31 -3 -28 -7z"/>
</g>
</svg>
